<svg id="visual" viewBox="0 0 900 600" width="900" height="600" xmlns="http://www.w3.org/2000/svg" xmlns:xlink="http://www.w3.org/1999/xlink" version="1.1"><path d="M0 448L11.5 453.3C23 458.7 46 469.3 69 479.3C92 489.3 115 498.7 138.2 498C161.3 497.3 184.7 486.7 207.8 480.3C231 474 254 472 277 476.8C300 481.7 323 493.3 346 500.8C369 508.3 392 511.7 415.2 508.8C438.3 506 461.7 497 484.8 495.5C508 494 531 500 554 493.7C577 487.3 600 468.7 623 463.7C646 458.7 669 467.3 692.2 468C715.3 468.7 738.7 461.3 761.8 462.8C785 464.3 808 474.7 831 469.2C854 463.7 877 442.3 888.5 431.7L900 421L900 601L888.5 601C877 601 854 601 831 601C808 601 785 601 761.8 601C738.7 601 715.3 601 692.2 601C669 601 646 601 623 601C600 601 577 601 554 601C531 601 508 601 484.8 601C461.7 601 438.3 601 415.2 601C392 601 369 601 346 601C323 601 300 601 277 601C254 601 231 601 207.8 601C184.7 601 161.3 601 138.2 601C115 601 92 601 69 601C46 601 23 601 11.5 601L0 601Z" fill="#283618" stroke-linecap="round" stroke-linejoin="miter"></path></svg>