<svg id="visual" viewBox="0 0 1000 100" width="1000" height="100" xmlns="http://www.w3.org/2000/svg" xmlns:xlink="http://www.w3.org/1999/xlink" version="1.1"><path d="M0 6L6.3 16.2C12.7 26.3 25.3 46.7 38.2 47.3C51 48 64 29 76.8 29.7C89.7 30.3 102.3 50.7 115.2 59C128 67.3 141 63.7 153.8 67.3C166.7 71 179.3 82 192.2 75C205 68 218 43 230.8 30.2C243.7 17.3 256.3 16.7 269.2 18.8C282 21 295 26 307.8 36.7C320.7 47.3 333.3 63.7 346.2 65.5C359 67.3 372 54.7 384.8 52.5C397.7 50.3 410.3 58.7 423.2 54C436 49.3 449 31.7 461.8 31.8C474.7 32 487.3 50 500 60.5C512.7 71 525.3 74 538.2 69.3C551 64.7 564 52.3 576.8 41.8C589.7 31.3 602.3 22.7 615.2 25.7C628 28.7 641 43.3 653.8 47.7C666.7 52 679.3 46 692.2 41.7C705 37.3 718 34.7 730.8 37.7C743.7 40.7 756.3 49.3 769.2 46.8C782 44.3 795 30.7 807.8 34.5C820.7 38.3 833.3 59.7 846.2 60.8C859 62 872 43 884.8 43.8C897.7 44.7 910.3 65.3 923.2 72.2C936 79 949 72 961.8 58.8C974.7 45.7 987.3 26.3 993.7 16.7L1000 7L1000 101L993.7 101C987.3 101 974.7 101 961.8 101C949 101 936 101 923.2 101C910.3 101 897.7 101 884.8 101C872 101 859 101 846.2 101C833.3 101 820.7 101 807.8 101C795 101 782 101 769.2 101C756.3 101 743.7 101 730.8 101C718 101 705 101 692.2 101C679.3 101 666.7 101 653.8 101C641 101 628 101 615.2 101C602.3 101 589.7 101 576.8 101C564 101 551 101 538.2 101C525.3 101 512.7 101 500 101C487.3 101 474.7 101 461.8 101C449 101 436 101 423.2 101C410.3 101 397.7 101 384.8 101C372 101 359 101 346.2 101C333.3 101 320.7 101 307.8 101C295 101 282 101 269.2 101C256.3 101 243.7 101 230.8 101C218 101 205 101 192.2 101C179.3 101 166.7 101 153.8 101C141 101 128 101 115.2 101C102.3 101 89.7 101 76.8 101C64 101 51 101 38.2 101C25.3 101 12.7 101 6.3 101L0 101Z" fill="#283618" stroke-linecap="round" stroke-linejoin="miter"></path></svg>